<svg width="310.415" height="311.585" xmlns="http://www.w3.org/2000/svg" xmlns:xlink="http://www.w3.org/1999/xlink" id="svg18836" xml:space="preserve" overflow="hidden"><defs id="defs18840"><linearGradient x1="-54.7412" y1="977.55" x2="56.2565" y2="1091.43" gradientUnits="userSpaceOnUse" xlink:href="#linearGradient2568" id="linearGradient2105" gradientTransform="matrix(0.472398 0 0 0.472398 2079.15 1172.9)"></linearGradient><linearGradient id="linearGradient2568"><stop offset="0" stop-color="#1BB1E8"/><stop offset="1" stop-color="#2456FF"/></linearGradient><linearGradient x1="-54.7412" y1="977.55" x2="56.2565" y2="1091.43" gradientUnits="userSpaceOnUse" xlink:href="#linearGradient2568" id="linearGradient2107" gradientTransform="matrix(0.514426 0 0 0.514426 2080.73 1131.15)"></linearGradient><linearGradient id="linearGradient18851"><stop offset="0" stop-color="#1BB1E8"/><stop offset="1" stop-color="#2456FF"/></linearGradient></defs><g id="g18853" transform="matrix(3.77953 0 0 3.77953 -7709.25 -6131.25)"><g id="g18708"><circle cx="2077.82" cy="1659.7" r="34.0466" id="path876-2-0-1-2-5" fill="#F5323B"/><text id="text974-7-8-0-2-9" stroke-width="0.264583" font-family="Abyssinica SIL" font-weight="400" font-size="10.5833" letter-spacing="-0.00264583" x="2076.43" y="1661.94"><tspan x="2076.43" y="1661.94">1</tspan></text><ellipse cx="2079.22" cy="1661.71" rx="37.4624" ry="37.6045" id="path1716-7-8-1-4-4" stroke="#4D4D4D" stroke-width="0.49592" fill="#FFFFFF"/><path d="M2071.31 1698.49C2068.73 1697.97 2065.26 1696.73 2062.56 1695.37 2060 1694.08 2057.31 1692.41 2057.31 1692.1 2057.31 1692.01 2058.1 1691.15 2059.07 1690.19 2060.04 1689.23 2060.94 1688.24 2061.07 1687.99 2061.4 1687.36 2061.37 1686.29 2060.99 1685.56 2060.81 1685.22 2059.48 1683.77 2058.03 1682.33 2055.81 1680.15 2055.26 1679.69 2054.65 1679.53 2053.31 1679.17 2052.92 1679.36 2050.8 1681.46 2049.74 1682.5 2048.79 1683.36 2048.69 1683.36 2048.17 1683.36 2045.14 1677.8 2044.1 1674.94 2042.9 1671.62 2042.05 1668.11 2042.35 1667.73 2042.47 1667.58 2043.23 1667.52 2045.1 1667.52 2048.07 1667.52 2048.44 1667.4 2049.13 1666.18 2049.51 1665.5 2049.52 1665.35 2049.54 1661.54 2049.56 1657.16 2049.48 1656.74 2048.41 1655.98 2047.94 1655.64 2047.67 1655.6 2045.23 1655.56 2043.76 1655.53 2042.5 1655.45 2042.43 1655.38 2042.07 1655.02 2043.61 1649.66 2044.93 1646.69 2046.22 1643.8 2048.44 1640.03 2048.86 1640.03 2048.96 1640.03 2049.87 1640.85 2050.88 1641.84 2052.92 1643.85 2053.32 1644.05 2054.66 1643.69 2055.28 1643.53 2055.81 1643.08 2058.11 1640.8 2060.94 1638.01 2061.19 1637.69 2061.38 1636.65 2061.55 1635.67 2061.05 1634.81 2059.24 1633.03 2058.36 1632.16 2057.64 1631.37 2057.64 1631.28 2057.64 1630.87 2061.57 1628.6 2064.45 1627.34 2067.3 1626.1 2072.48 1624.64 2072.97 1624.94 2073.07 1625.01 2073.14 1626.06 2073.14 1627.6 2073.14 1629.96 2073.17 1630.18 2073.52 1630.7 2074.29 1631.86 2074.62 1631.94 2078.81 1632 2082.93 1632.06 2083.47 1631.98 2084.39 1631.17 2085.16 1630.49 2085.3 1629.86 2085.3 1627.13L2085.3 1624.82 2086.1 1624.94C2088.75 1625.34 2092.95 1626.75 2095.95 1628.25 2098.22 1629.39 2100.8 1630.99 2100.8 1631.25 2100.8 1631.36 2100 1632.23 2099.03 1633.19 2097.17 1635.04 2096.97 1635.34 2096.97 1636.32 2096.97 1637.39 2097.55 1638.2 2100.09 1640.73 2104.09 1644.69 2104.64 1644.75 2107.82 1641.59L2109.59 1639.83 2110.08 1640.47C2111.49 1642.28 2113.66 1646.49 2114.64 1649.28 2115.29 1651.16 2116.14 1654.39 2116.14 1655.04L2116.14 1655.53 2113.41 1655.53C2110.86 1655.53 2110.65 1655.55 2110.13 1655.9 2108.9 1656.74 2108.89 1656.77 2108.84 1661.16 2108.78 1665.53 2108.87 1666.04 2109.82 1666.95L2110.32 1667.44 2113.24 1667.49C2115.62 1667.54 2116.17 1667.59 2116.25 1667.79 2116.46 1668.36 2115.32 1672.81 2114.29 1675.4 2112.94 1678.81 2110.3 1683.52 2109.74 1683.52 2109.61 1683.52 2108.78 1682.74 2107.89 1681.78 2106.28 1680.05 2105.3 1679.35 2104.46 1679.36 2103.54 1679.37 2102.62 1680.04 2100.09 1682.55 2098.06 1684.57 2097.46 1685.27 2097.22 1685.89 2096.7 1687.28 2096.88 1687.65 2099.19 1689.99 2100.89 1691.71 2101.18 1692.08 2101.03 1692.32 2100.61 1693.01 2096.02 1695.58 2093.22 1696.69 2090.64 1697.72 2085.89 1698.99 2085.37 1698.79 2085.21 1698.73 2085.15 1697.93 2085.11 1695.71 2085.06 1692.78 2085.05 1692.71 2084.64 1692.26 2083.74 1691.29 2083.25 1691.2 2079.13 1691.19 2075.56 1691.19 2075.34 1691.21 2074.64 1691.56 2073.31 1692.24 2073.23 1692.47 2073.17 1695.74 2073.14 1697.32 2073.07 1698.65 2073 1698.71 2072.94 1698.77 2072.18 1698.67 2071.31 1698.49ZM2078.39 1688.68C2078.63 1688.29 2078.1 1688.06 2076.68 1687.95 2075.88 1687.89 2074.67 1687.72 2074 1687.58 2073.17 1687.41 2072.72 1687.38 2072.6 1687.49 2072.17 1687.93 2073.04 1688.25 2075.63 1688.6 2077.66 1688.88 2078.26 1688.9 2078.39 1688.68ZM2086.69 1687.78C2088.41 1687.28 2089.97 1686.61 2089.97 1686.36 2089.97 1685.99 2089.52 1686.03 2088.22 1686.5 2087.49 1686.76 2086.33 1687.11 2085.64 1687.28 2084.44 1687.56 2084.07 1687.77 2084.24 1688.06 2084.39 1688.29 2085.24 1688.2 2086.69 1687.78ZM2082.72 1685.77C2091.78 1684.41 2099.37 1678.06 2102.22 1669.47 2103.8 1664.71 2104 1660.52 2102.88 1655.94 2101.2 1649.08 2096.71 1643.37 2090.44 1640.11 2086.93 1638.29 2083.98 1637.54 2079.89 1637.41 2077.67 1637.34 2076.88 1637.38 2075.17 1637.67 2069.98 1638.56 2065.73 1640.76 2061.96 1644.52 2058.52 1647.95 2056.5 1651.59 2055.36 1656.36 2055.04 1657.74 2054.93 1658.72 2054.86 1661.03 2054.78 1663.72 2054.81 1664.1 2055.21 1666.01 2056.32 1671.32 2058.45 1675.33 2062.06 1678.94 2065.94 1682.81 2070.83 1685.17 2076.56 1685.91 2077.82 1686.07 2081.22 1686 2082.72 1685.77ZM2067.14 1685.45C2067.14 1685.32 2066.67 1684.95 2066.09 1684.63 2065.51 1684.3 2064.45 1683.62 2063.74 1683.11 2062.34 1682.11 2062.14 1682.03 2062.14 1682.5 2062.14 1682.8 2063.67 1683.98 2065.56 1685.15 2066.46 1685.71 2067.14 1685.84 2067.14 1685.45ZM2096.99 1682.08C2098.93 1680.35 2099.7 1679.36 2099.11 1679.36 2099 1679.36 2098.38 1679.86 2097.73 1680.48 2097.09 1681.1 2096.19 1681.92 2095.74 1682.29 2095.14 1682.78 2094.95 1683.05 2095.02 1683.25 2095.17 1683.63 2095.41 1683.49 2096.99 1682.08ZM2058.06 1678.02C2058.12 1677.92 2057.8 1677.3 2057.35 1676.64 2056.9 1675.98 2056.25 1674.93 2055.9 1674.32 2055.35 1673.31 2054.81 1672.85 2054.81 1673.38 2054.81 1673.85 2057.53 1678.19 2057.82 1678.19 2057.9 1678.19 2058 1678.11 2058.06 1678.02ZM2103.62 1673.26C2104.44 1671.61 2105.16 1669.48 2104.97 1669.29 2104.73 1669.05 2104.56 1669.3 2104.09 1670.61 2103.86 1671.25 2103.41 1672.35 2103.09 1673.05 2102.76 1673.76 2102.55 1674.38 2102.6 1674.43 2102.82 1674.65 2103.07 1674.36 2103.62 1673.26ZM2053.2 1667.09C2053.19 1666.92 2053.09 1666.06 2052.99 1665.19 2052.88 1664.32 2052.81 1662.48 2052.83 1661.11 2052.87 1658.92 2052.84 1658.6 2052.61 1658.56 2052.21 1658.48 2052.13 1658.94 2052.11 1661.47 2052.1 1663.5 2052.48 1666.95 2052.76 1667.41 2052.9 1667.65 2053.23 1667.42 2053.2 1667.09ZM2106.19 1660.77C2106.16 1658.28 2105.98 1657.27 2105.59 1657.4 2105.37 1657.48 2105.36 1657.71 2105.52 1660.86 2105.58 1662 2105.63 1663.04 2105.63 1663.16 2105.63 1663.28 2105.77 1663.36 2105.93 1663.32 2106.19 1663.27 2106.22 1663.03 2106.19 1660.77ZM2054.81 1651.57C2055.11 1650.86 2055.65 1649.74 2056 1649.1 2056.72 1647.77 2056.77 1647.53 2056.34 1647.53 2056.13 1647.53 2055.8 1647.96 2055.27 1648.98 2054.28 1650.88 2053.61 1652.5 2053.73 1652.7 2053.97 1653.1 2054.29 1652.76 2054.81 1651.57ZM2104.23 1651.67C2104.35 1651.48 2103 1648.67 2102.14 1647.32 2101.66 1646.56 2101.14 1646.27 2101.14 1646.75 2101.14 1646.88 2101.5 1647.61 2101.94 1648.38 2102.39 1649.15 2102.96 1650.25 2103.22 1650.82 2103.66 1651.81 2103.98 1652.08 2104.23 1651.67ZM2061.45 1642.17C2061.97 1641.69 2062.94 1640.9 2063.61 1640.4 2064.74 1639.57 2065.05 1639.08 2064.43 1639.13 2063.78 1639.18 2059.85 1642.52 2060.05 1642.84 2060.25 1643.16 2060.49 1643.05 2061.45 1642.17ZM2097.47 1641.96C2097.47 1641.71 2095.47 1640.03 2094.02 1639.06 2093.23 1638.54 2092.64 1638.44 2092.64 1638.83 2092.64 1638.9 2093.26 1639.39 2094.01 1639.91 2094.77 1640.42 2095.73 1641.15 2096.14 1641.51 2096.9 1642.19 2097.47 1642.38 2097.47 1641.96ZM2071.24 1636.52C2072.04 1636.25 2075.15 1635.53 2075.54 1635.53 2075.6 1635.53 2075.64 1635.41 2075.64 1635.28 2075.64 1634.91 2074.62 1634.96 2072.79 1635.42 2070.42 1636.03 2069.71 1636.37 2070.09 1636.75 2070.23 1636.89 2070.1 1636.91 2071.24 1636.52ZM2087.31 1636.13C2087.31 1635.89 2085.62 1635.37 2083.73 1635.04 2082.34 1634.79 2081.64 1634.81 2081.64 1635.1 2081.64 1635.38 2081.89 1635.46 2083.14 1635.6 2083.64 1635.66 2084.58 1635.85 2085.22 1636.01 2086.7 1636.4 2087.31 1636.43 2087.31 1636.13Z" id="path1714-5-4-1-1-8" stroke-width="0.166652" fill="url(#linearGradient2105)"/><text id="text1847-0-7-3-2-1" stroke-width="0.667479" fill="#666666" font-family="Abyssinica SIL" font-weight="400" font-size="26.6992" letter-spacing="-0.00667478" x="2070.21" y="1668.77"><tspan x="2070.21" y="1668.77">1</tspan></text><circle cx="2079.28" cy="1661.26" r="37.0756" id="path876-2-0-1-2-8-6-3" stroke-width="1.08897" fill="#F5323B"/><text id="text974-7-8-0-2-8-8-0" stroke-width="0.288122" font-family="Abyssinica SIL" font-weight="400" font-size="11.5249" letter-spacing="-0.00288122" x="2077.77" y="1663.69"><tspan x="2077.77" y="1663.69">1</tspan></text><ellipse cx="2080.8" cy="1663.45" rx="40.7953" ry="40.9501" id="path1716-7-8-1-4-8-0-4" stroke="#4D4D4D" stroke-width="0.54004" fill="#FFFFFF"/><path d="M2072.18 1703.51C2069.38 1702.93 2065.6 1701.58 2062.66 1700.1 2059.87 1698.69 2056.94 1696.88 2056.94 1696.55 2056.94 1696.44 2057.8 1695.5 2058.86 1694.46 2059.91 1693.41 2060.89 1692.34 2061.04 1692.07 2061.4 1691.38 2061.36 1690.22 2060.95 1689.42 2060.76 1689.05 2059.31 1687.47 2057.72 1685.9 2055.31 1683.53 2054.71 1683.03 2054.05 1682.85 2052.59 1682.46 2052.16 1682.67 2049.85 1684.95 2048.7 1686.09 2047.67 1687.02 2047.56 1687.02 2046.99 1687.02 2043.69 1680.97 2042.56 1677.86 2041.25 1674.24 2040.32 1670.42 2040.65 1670.01 2040.78 1669.84 2041.61 1669.78 2043.65 1669.78 2046.88 1669.78 2047.29 1669.64 2048.03 1668.31 2048.45 1667.58 2048.46 1667.41 2048.48 1663.27 2048.5 1658.49 2048.41 1658.04 2047.25 1657.21 2046.73 1656.84 2046.44 1656.8 2043.78 1656.75 2042.19 1656.72 2040.81 1656.63 2040.74 1656.55 2040.34 1656.16 2042.02 1650.33 2043.46 1647.1 2044.87 1643.95 2047.29 1639.84 2047.74 1639.84 2047.85 1639.84 2048.84 1640.73 2049.94 1641.82 2052.16 1644 2052.6 1644.21 2054.05 1643.83 2054.73 1643.65 2055.31 1643.16 2057.82 1640.68 2060.9 1637.63 2061.17 1637.29 2061.37 1636.16 2061.56 1635.09 2061.01 1634.16 2059.05 1632.22 2058.09 1631.27 2057.3 1630.41 2057.3 1630.31 2057.3 1629.86 2061.58 1627.39 2064.72 1626.03 2067.83 1624.67 2073.46 1623.08 2074 1623.41 2074.11 1623.48 2074.18 1624.63 2074.18 1626.3 2074.18 1628.88 2074.21 1629.12 2074.59 1629.68 2075.44 1630.94 2075.79 1631.03 2080.35 1631.09 2084.84 1631.16 2085.43 1631.07 2086.43 1630.2 2087.27 1629.46 2087.43 1628.77 2087.43 1625.8L2087.43 1623.28 2088.29 1623.41C2091.18 1623.84 2095.75 1625.37 2099.02 1627.01 2101.49 1628.26 2104.31 1629.99 2104.3 1630.27 2104.3 1630.39 2103.43 1631.35 2102.38 1632.4 2100.35 1634.4 2100.13 1634.74 2100.13 1635.8 2100.13 1636.96 2100.76 1637.85 2103.53 1640.6 2107.88 1644.91 2108.48 1644.98 2111.94 1641.54L2113.87 1639.62 2114.41 1640.32C2115.94 1642.29 2118.31 1646.87 2119.37 1649.91 2120.08 1651.96 2121 1655.48 2121 1656.18L2121 1656.71 2118.03 1656.71C2115.25 1656.71 2115.03 1656.74 2114.47 1657.12 2113.12 1658.04 2113.11 1658.07 2113.05 1662.85 2112.99 1667.61 2113.08 1668.17 2114.12 1669.16L2114.67 1669.69 2117.85 1669.75C2120.44 1669.79 2121.04 1669.85 2121.12 1670.07 2121.36 1670.69 2120.11 1675.54 2119 1678.35 2117.52 1682.07 2114.65 1687.2 2114.04 1687.2 2113.89 1687.2 2112.99 1686.35 2112.02 1685.31 2110.27 1683.42 2109.2 1682.66 2108.28 1682.67 2107.28 1682.68 2106.28 1683.41 2103.53 1686.14 2101.32 1688.34 2100.66 1689.11 2100.41 1689.78 2099.84 1691.29 2100.04 1691.7 2102.55 1694.24 2104.4 1696.11 2104.72 1696.52 2104.56 1696.78 2104.09 1697.53 2099.09 1700.33 2096.05 1701.54 2093.24 1702.66 2088.07 1704.04 2087.5 1703.83 2087.33 1703.76 2087.25 1702.89 2087.21 1700.48 2087.16 1697.28 2087.15 1697.2 2086.7 1696.72 2085.73 1695.66 2085.19 1695.56 2080.71 1695.56 2076.82 1695.56 2076.58 1695.57 2075.82 1695.96 2074.37 1696.7 2074.28 1696.95 2074.21 1700.51 2074.18 1702.22 2074.1 1703.68 2074.03 1703.74 2073.96 1703.81 2073.13 1703.7 2072.18 1703.51ZM2079.9 1692.82C2080.16 1692.4 2079.58 1692.15 2078.04 1692.02 2077.17 1691.95 2075.85 1691.77 2075.12 1691.62 2074.22 1691.43 2073.72 1691.4 2073.6 1691.52 2073.12 1692 2074.08 1692.35 2076.89 1692.74 2079.1 1693.04 2079.76 1693.06 2079.9 1692.82ZM2088.93 1691.84C2090.81 1691.29 2092.51 1690.56 2092.51 1690.29 2092.51 1689.89 2092.02 1689.93 2090.6 1690.44 2089.8 1690.73 2088.54 1691.11 2087.79 1691.29 2086.49 1691.6 2086.08 1691.83 2086.27 1692.14 2086.43 1692.4 2087.36 1692.29 2088.93 1691.84ZM2084.62 1689.65C2094.48 1688.17 2102.74 1681.26 2105.85 1671.9 2107.56 1666.72 2107.79 1662.15 2106.57 1657.17 2104.74 1649.7 2099.85 1643.48 2093.02 1639.93 2089.2 1637.95 2085.98 1637.12 2081.53 1636.98 2079.11 1636.91 2078.25 1636.96 2076.39 1637.27 2070.74 1638.24 2066.11 1640.64 2062.01 1644.73 2058.26 1648.47 2056.05 1652.42 2054.82 1657.62 2054.47 1659.13 2054.35 1660.19 2054.28 1662.7 2054.19 1665.63 2054.22 1666.05 2054.65 1668.13 2055.87 1673.92 2058.18 1678.28 2062.12 1682.21 2066.34 1686.43 2071.67 1688.99 2077.9 1689.8 2079.28 1689.98 2082.97 1689.9 2084.62 1689.65ZM2067.65 1689.31C2067.65 1689.16 2067.13 1688.76 2066.5 1688.41 2065.87 1688.05 2064.72 1687.31 2063.95 1686.76 2062.42 1685.66 2062.2 1685.58 2062.2 1686.08 2062.2 1686.41 2063.87 1687.7 2065.92 1688.97 2066.9 1689.58 2067.65 1689.72 2067.65 1689.31ZM2100.15 1685.63C2102.26 1683.74 2103.1 1682.67 2102.46 1682.67 2102.34 1682.67 2101.67 1683.22 2100.96 1683.89 2100.26 1684.57 2099.28 1685.45 2098.79 1685.86 2098.14 1686.4 2097.92 1686.68 2098.01 1686.91 2098.17 1687.32 2098.43 1687.16 2100.15 1685.63ZM2057.76 1681.2C2057.83 1681.1 2057.48 1680.43 2056.98 1679.71 2056.49 1678.99 2055.78 1677.85 2055.41 1677.18 2054.8 1676.08 2054.22 1675.58 2054.22 1676.16 2054.22 1676.67 2057.18 1681.4 2057.5 1681.4 2057.58 1681.4 2057.7 1681.31 2057.76 1681.2ZM2107.37 1676.03C2108.27 1674.23 2109.05 1671.91 2108.84 1671.7 2108.58 1671.44 2108.39 1671.71 2107.88 1673.14 2107.63 1673.84 2107.14 1675.04 2106.79 1675.8 2106.44 1676.57 2106.2 1677.24 2106.26 1677.3 2106.5 1677.54 2106.78 1677.23 2107.37 1676.03ZM2052.47 1669.31C2052.46 1669.12 2052.35 1668.19 2052.23 1667.24 2052.11 1666.29 2052.04 1664.29 2052.06 1662.79 2052.1 1660.42 2052.08 1660.07 2051.82 1660.02 2051.38 1659.93 2051.3 1660.43 2051.28 1663.19 2051.27 1665.4 2051.68 1669.15 2051.98 1669.65 2052.14 1669.91 2052.49 1669.67 2052.47 1669.31ZM2110.17 1662.43C2110.14 1659.71 2109.95 1658.61 2109.52 1658.76 2109.27 1658.84 2109.27 1659.09 2109.45 1662.52 2109.51 1663.77 2109.56 1664.9 2109.57 1665.03 2109.57 1665.16 2109.71 1665.24 2109.89 1665.21 2110.17 1665.15 2110.2 1664.88 2110.17 1662.43ZM2054.22 1652.4C2054.55 1651.63 2055.14 1650.42 2055.52 1649.71 2056.3 1648.26 2056.36 1648 2055.88 1648 2055.65 1648 2055.3 1648.48 2054.72 1649.59 2053.64 1651.65 2052.91 1653.42 2053.04 1653.64 2053.31 1654.07 2053.65 1653.71 2054.22 1652.4ZM2108.04 1652.52C2108.17 1652.31 2106.7 1649.25 2105.76 1647.78 2105.24 1646.95 2104.67 1646.63 2104.67 1647.16 2104.67 1647.3 2105.06 1648.09 2105.55 1648.93 2106.03 1649.77 2106.65 1650.97 2106.93 1651.59 2107.42 1652.67 2107.77 1652.96 2108.04 1652.52ZM2061.45 1642.17C2062.01 1641.65 2063.07 1640.79 2063.8 1640.25 2065.03 1639.33 2065.37 1638.81 2064.7 1638.86 2063.99 1638.92 2059.7 1642.55 2059.92 1642.91 2060.14 1643.25 2060.4 1643.12 2061.45 1642.17ZM2100.68 1641.94C2100.68 1641.66 2098.49 1639.84 2096.92 1638.79 2096.06 1638.22 2095.41 1638.11 2095.41 1638.53 2095.41 1638.61 2096.09 1639.14 2096.91 1639.71 2097.73 1640.27 2098.78 1641.06 2099.22 1641.46 2100.06 1642.19 2100.68 1642.4 2100.68 1641.94ZM2072.11 1636.02C2072.98 1635.72 2076.37 1634.94 2076.79 1634.94 2076.85 1634.94 2076.9 1634.81 2076.9 1634.66 2076.9 1634.26 2075.79 1634.32 2073.8 1634.82 2071.22 1635.48 2070.44 1635.86 2070.85 1636.27 2071.01 1636.42 2070.87 1636.45 2072.11 1636.02ZM2089.61 1635.59C2089.61 1635.33 2087.77 1634.77 2085.72 1634.4 2084.19 1634.13 2083.44 1634.15 2083.44 1634.47 2083.44 1634.77 2083.71 1634.87 2085.07 1635.02 2085.62 1635.08 2086.64 1635.28 2087.34 1635.47 2088.94 1635.89 2089.61 1635.92 2089.61 1635.59Z" id="path1714-5-4-1-1-3-6-4" stroke-width="0.181478" fill="url(#linearGradient2107)"/><text id="text1847-0-7-3-2-8-8-4" stroke-width="0.498405" fill="#666666" font-family="Abyssinica SIL" font-weight="400" font-size="19.9362" letter-spacing="-0.00498404" x="2073.26" y="1664.08"><tspan x="2073.26" y="1664.08">1</tspan></text><text id="text1847-0-7-3-2-8-8-9-6" stroke-width="0.245113" fill="#2175F7" font-family="Abyssinica SIL" font-weight="400" font-size="9.80453" letter-spacing="-0.00245113" x="2067.83" y="1678.3"><tspan font-family="Courier New" font-weight="700" x="2067.83" y="1678.3">LUCK</tspan></text></g></g></svg>