<svg width="48.6049" height="33.2362" xmlns="http://www.w3.org/2000/svg" xmlns:xlink="http://www.w3.org/1999/xlink" id="svg62929" xml:space="preserve" overflow="hidden"><defs id="defs62933"></defs><g id="g62935" transform="matrix(3.77953 0 0 3.77953 37927.1 8817.75)"><path d="M-10033.6-2324.26C-10033.8-2324.28-10033.9-2324.31-10034.1-2324.42-10034.3-2324.54-10034.6-2324.83-10034.7-2325.07-10034.9-2325.41-10034.9-2325.24-10034.9-2328.63-10034.9-2330.74-10034.9-2331.72-10034.9-2331.82-10034.8-2332.04-10034.7-2332.35-10034.5-2332.53-10034.3-2332.73-10034.1-2332.86-10033.8-2332.95L-10033.6-2333.03-10028.5-2333.03-10023.3-2333.03-10023.1-2332.95C-10022.8-2332.86-10022.6-2332.73-10022.4-2332.53-10022.3-2332.35-10022.1-2332.04-10022.1-2331.82-10022-2331.63-10022-2325.64-10022.1-2325.45-10022.1-2325.38-10022.1-2325.23-10022.2-2325.11-10022.3-2324.83-10022.6-2324.54-10022.9-2324.41-10023.2-2324.23-10022.8-2324.24-10028.4-2324.24-10031.1-2324.23-10033.5-2324.25-10033.6-2324.26ZM-10023.2-2324.94C-10023.1-2325.02-10022.9-2325.13-10022.8-2325.28-10022.7-2325.52-10022.7-2325.39-10022.7-2328.3L-10022.7-2330.95-10025.5-2329.36C-10027.8-2328.1-10028.4-2327.77-10028.5-2327.77-10028.5-2327.77-10029.2-2328.1-10031.4-2329.36L-10034.3-2330.95-10034.3-2328.3C-10034.3-2325.39-10034.3-2325.52-10034.1-2325.28-10034-2325.13-10033.9-2325.02-10033.7-2324.94L-10033.6-2324.88-10028.5-2324.88-10023.4-2324.88ZM-10025.6-2330.06-10022.7-2331.67-10022.7-2331.74C-10022.8-2332-10023-2332.24-10023.2-2332.34L-10023.4-2332.4-10028.5-2332.4-10033.5-2332.4-10033.7-2332.34C-10033.9-2332.24-10034.2-2332-10034.2-2331.74L-10034.3-2331.67-10031.4-2330.06C-10029.8-2329.17-10028.5-2328.45-10028.5-2328.45-10028.5-2328.45-10027.2-2329.17-10025.6-2330.06Z" id="path4524-9-9-1" stroke-width="0.0251078" fill="#B3B3B3"/></g></svg>