<svg width="47.105" height="25.4287" xmlns="http://www.w3.org/2000/svg" xmlns:xlink="http://www.w3.org/1999/xlink" id="svg62943" xml:space="preserve" overflow="hidden"><defs id="defs62947"></defs><g id="g62949" transform="matrix(3.77953 0 0 3.77953 37921.9 8478.84)"><path d="M-10021.1-2239.91C-10021.1-2239.87-10021.3-2239.59-10021.7-2239.28L-10022.2-2238.73-10022.7-2238.73-10023.3-2238.73-10023.5-2238.48C-10023.6-2238.35-10023.8-2238.23-10023.8-2238.21-10023.9-2238.17-10024-2238.22-10024.3-2238.48L-10024.5-2238.72-10024.7-2238.72-10024.8-2238.72-10025.1-2238.48C-10025.2-2238.35-10025.3-2238.22-10025.4-2238.21-10025.5-2238.16-10025.6-2238.22-10025.8-2238.48L-10026.1-2238.72-10026.4-2238.72-10026.8-2238.72-10026.8-2238.56C-10026.8-2238.48-10026.8-2238.38-10026.8-2238.34-10026.8-2238.24-10026.9-2238.18-10027.1-2238.18L-10027.3-2238.18-10027.4-2238.02C-10027.6-2237.8-10027.9-2237.47-10028.1-2237.29-10028.5-2237-10029-2236.77-10029.5-2236.68-10029.8-2236.62-10030.4-2236.62-10030.7-2236.68-10032.1-2236.93-10033.2-2238.01-10033.4-2239.41-10033.5-2239.73-10033.5-2240.27-10033.4-2240.58-10033.3-2241.28-10033-2241.87-10032.5-2242.37-10032-2242.86-10031.5-2243.16-10030.7-2243.31-10030.5-2243.38-10029.8-2243.38-10029.5-2243.31-10029.2-2243.26-10028.8-2243.13-10028.6-2243.02-10028.2-2242.8-10027.7-2242.4-10027.4-2242.01L-10027.3-2241.82-10027.1-2241.82C-10026.9-2241.82-10026.9-2241.81-10026.8-2241.74-10026.8-2241.66-10026.8-2241.64-10026.8-2241.48L-10026.8-2241.31-10024.5-2241.32C-10022.6-2241.33-10022.3-2241.32-10022.2-2241.29-10022.1-2241.25-10021.1-2240.19-10021-2240.11-10021-2240.05-10021-2240.02-10021.1-2239.92ZM-10022-2240.42-10022.4-2240.8-10024.8-2240.79-10027.1-2240.78-10027.2-2240.85C-10027.2-2240.91-10027.3-2240.93-10027.3-2241.1L-10027.3-2241.29-10027.4-2241.29C-10027.5-2241.29-10027.6-2241.33-10027.7-2241.55-10027.9-2241.84-10028.1-2242.05-10028.4-2242.24-10029.3-2242.92-10030.4-2243.03-10031.4-2242.53-10032.8-2241.85-10033.4-2240.23-10032.8-2238.84-10032.5-2238.2-10031.9-2237.63-10031.3-2237.35-10030.5-2237.04-10029.7-2237.04-10029-2237.36-10028.5-2237.55-10028-2238-10027.7-2238.43-10027.6-2238.65-10027.5-2238.69-10027.4-2238.69L-10027.3-2238.69-10027.3-2238.83C-10027.3-2239-10027.2-2239.08-10027.2-2239.15-10027.1-2239.2-10027.1-2239.2-10026.5-2239.2L-10025.9-2239.2-10025.6-2239-10025.4-2238.8-10025.2-2239-10025-2239.2-10024.7-2239.2-10024.3-2239.2-10024.1-2239-10023.9-2238.8-10023.7-2239-10023.5-2239.2-10023-2239.2-10022.5-2239.2-10022.1-2239.6C-10021.8-2239.82-10021.7-2240-10021.7-2240.01-10021.7-2240.02-10021.8-2240.19-10022-2240.4ZM-10022.6-2239.89C-10022.7-2239.74-10022.6-2239.75-10024.7-2239.74-10025.8-2239.74-10026.5-2239.75-10026.6-2239.76-10026.7-2239.83-10026.8-2240.04-10026.7-2240.17L-10026.6-2240.24-10024.7-2240.25-10022.8-2240.26-10022.7-2240.2C-10022.6-2240.12-10022.6-2239.99-10022.6-2239.89ZM-10029.9-2239.71C-10030.1-2238.86-10031-2238.45-10031.8-2238.86-10032.5-2239.26-10032.7-2240.22-10032.1-2240.84-10031.7-2241.32-10031-2241.41-10030.5-2241.06-10030.2-2240.9-10030-2240.68-10029.9-2240.4-10029.9-2240.21-10029.9-2239.89-10029.9-2239.71ZM-10030.4-2240.28C-10030.5-2240.45-10030.7-2240.62-10030.8-2240.7-10030.9-2240.75-10031-2240.76-10031.2-2240.76-10031.3-2240.76-10031.4-2240.75-10031.5-2240.69-10031.8-2240.55-10032-2240.27-10031.9-2239.95-10031.9-2239.73-10031.9-2239.58-10031.7-2239.43-10031.4-2239.15-10031-2239.12-10030.7-2239.38-10030.6-2239.47-10030.5-2239.61-10030.4-2239.72-10030.4-2239.87-10030.4-2240.12-10030.4-2240.28Z" id="path826-8-8-9" stroke-width="0.0243713" fill="#B3B3B3"/></g></svg>