<svg width="141.686" height="139.436" xmlns="http://www.w3.org/2000/svg" xmlns:xlink="http://www.w3.org/1999/xlink" id="svg15458" xml:space="preserve" overflow="hidden"><defs id="defs15462"><linearGradient x1="-4673.04" y1="5259.66" x2="-4562.8" y2="5395.32" gradientUnits="userSpaceOnUse" xlink:href="#linearGradient2797" id="linearGradient191785" gradientTransform="matrix(0.264583 0 0 0.264583 -8838.33 -2135.95)"></linearGradient><linearGradient id="linearGradient2797"><stop offset="0" stop-color="#DEB750"/><stop offset="0.343441" stop-color="#A18332" stop-opacity="0.839216"/><stop offset="0.48686" stop-color="#5E4912" stop-opacity="0.662745"/><stop offset="0.651256" stop-color="#C6A244" stop-opacity="0.596078"/><stop offset="1" stop-color="#DEB750" stop-opacity="0.584314"/><stop offset="1" stop-color="#B99942"/></linearGradient></defs><g id="g15472" transform="matrix(3.77953 0 0 3.77953 38096.9 2815.11)"><path d="M-10074.7-744.331-10074.7-743.301C-10072.9-743.301-10071.7-742.993-10071-742.379-10070.3-741.801-10070-740.482-10070-738.422L-10070-733.455-10079.1-733.404C-10079.2-733.404-10079.3-733.293-10079.3-733.155L-10079.3-730.379C-10079.3-730.242-10079.2-730.133-10079-730.133L-10070-730.183-10070-726.479-10078.8-726.429C-10078.9-726.429-10079.1-726.318-10079.1-726.181L-10079-723.405C-10079-723.267-10078.9-723.158-10078.8-723.159L-10070-723.208-10070-714.348C-10070-712.36-10070.4-711.041-10071.1-710.39-10071.7-709.776-10072.9-709.469-10074.7-709.469L-10074.7-708.438-10045.6-708.438-10043-717.872-10044.3-717.872C-10045.8-714.547-10047.6-712.432-10049.8-711.529-10051.4-710.878-10054.4-710.553-10059-710.553-10061.4-710.553-10062.9-710.661-10063.5-710.878-10064.2-711.131-10064.5-711.764-10064.5-712.776L-10064.5-723.239-10056.2-723.285C-10056-723.285-10055.9-723.396-10055.9-723.534L-10055.9-726.309C-10055.9-726.446-10056.1-726.556-10056.2-726.556L-10064.5-726.51-10064.5-730.214-10056.4-730.259C-10056.3-730.259-10056.2-730.371-10056.2-730.508L-10056.2-733.284C-10056.2-733.421-10056.3-733.53-10056.4-733.529L-10064.5-733.484-10064.5-738.42C-10064.5-740.48-10064.2-741.799-10063.5-742.378-10062.7-742.992-10061.4-743.299-10059.5-743.299L-10059.5-744.329Z" id="text2655-6-2-2-0-5-3-2-2-1-9-0-4-0-9-7-6" stroke="#FFE776" fill="url(#linearGradient191785)" font-family="Abyssinica SIL" font-weight="400" font-size="61.4482" letter-spacing="-0.015362"/></g></svg>