<svg width="44.2852" height="43.7435" xmlns="http://www.w3.org/2000/svg" xmlns:xlink="http://www.w3.org/1999/xlink" id="svg19707" xml:space="preserve" overflow="hidden"><defs id="defs19711"></defs><g id="g19713" transform="matrix(3.77953 0 0 3.77953 -11680.4 -4394.95)"><path d="M3091.91 1162.83 3091.91 1163.16C3092.5 1163.16 3092.91 1163.26 3093.12 1163.46 3093.33 1163.65 3093.43 1164.07 3093.43 1164.74L3093.43 1166.34 3090.52 1166.36C3090.47 1166.36 3090.44 1166.39 3090.44 1166.44L3090.45 1167.33C3090.45 1167.37 3090.49 1167.41 3090.53 1167.41L3093.43 1167.39 3093.43 1168.59 3090.6 1168.6C3090.55 1168.6 3090.52 1168.64 3090.52 1168.68L3090.53 1169.58C3090.53 1169.62 3090.57 1169.66 3090.61 1169.66L3093.43 1169.64 3093.43 1172.5C3093.43 1173.14 3093.32 1173.57 3093.1 1173.78 3092.89 1173.97 3092.49 1174.07 3091.91 1174.07L3091.91 1174.41 3101.32 1174.41 3102.16 1171.36 3101.72 1171.36C3101.25 1172.44 3100.66 1173.12 3099.95 1173.41 3099.45 1173.62 3098.46 1173.72 3096.98 1173.72 3096.22 1173.72 3095.74 1173.69 3095.53 1173.62 3095.32 1173.54 3095.21 1173.33 3095.21 1173.01L3095.21 1169.63 3097.9 1169.62C3097.95 1169.62 3097.98 1169.58 3097.98 1169.54L3097.97 1168.64C3097.97 1168.6 3097.94 1168.56 3097.89 1168.56L3095.21 1168.58 3095.21 1167.38 3097.82 1167.37C3097.87 1167.37 3097.9 1167.33 3097.9 1167.29L3097.89 1166.39C3097.89 1166.35 3097.85 1166.31 3097.81 1166.31L3095.21 1166.33 3095.21 1164.74C3095.21 1164.07 3095.32 1163.65 3095.55 1163.46 3095.78 1163.26 3096.21 1163.16 3096.84 1163.16L3096.84 1162.83Z" id="text2655-6-2-2-0-5-3-2-4-20-4" stroke-width="0.322" fill="#C8C8C8" font-family="Abyssinica SIL" font-weight="400" font-size="61.4482" letter-spacing="-0.015362"/></g></svg>