<?xml version="1.0" encoding="UTF-8"?>
<!-- Created with Inkscape (http://www.inkscape.org/) -->
<svg width="67.039mm" height="56.579mm" version="1.1" viewBox="0 0 67.039 56.579" xmlns="http://www.w3.org/2000/svg" xmlns:xlink="http://www.w3.org/1999/xlink">
 <defs>
  <linearGradient id="linear-gradient" x1="90" x2="265.97" y1="147.08" y2="147.08" gradientUnits="userSpaceOnUse">
   <stop stop-color="#c79e6c" offset="0"/>
   <stop stop-color="#cea972" offset=".08"/>
   <stop stop-color="#e4c886" offset=".33"/>
   <stop stop-color="#efd497" offset=".52"/>
   <stop stop-color="#e4c886" offset=".73"/>
   <stop stop-color="#c79e6c" offset="1"/>
  </linearGradient>
  <linearGradient id="linearGradient7662" x1="89.506" x2="266.44" y1="147.08" y2="147.08" gradientTransform="matrix(.20544 0 0 .20544 -9976.5 -1765.7)" gradientUnits="userSpaceOnUse" xlink:href="#linear-gradient"/>
  <linearGradient id="linearGradient7664" x1="90.006" x2="265.94" y1="147.08" y2="147.08" gradientTransform="matrix(.20544 0 0 .20544 -9976.5 -1765.7)" gradientUnits="userSpaceOnUse" xlink:href="#linear-gradient"/>
 </defs>
 <g transform="translate(-31.646 -61.983)">
  <g transform="translate(10007 1827.6)" stroke-width=".20544">
   <path class="cls-9" d="m-9943.5-1765.6c-0.066-5e-4 -0.1557 0.031-0.2435 0.1669-0.4931 0.7622-1.0168 1.2942-1.2202 1.2347l-0.026-0.01-0.015-0.024c-0.033-0.06-1e-4 -0.1522 0.092-0.3535 0.095-0.2075 0.2119-0.4641 0.179-0.7106-0.012-0.09-0.089-0.1768-0.179-0.2035-0.099-0.029-0.1973 0.012-0.2692 0.1128-0.033 0.047-0.065 0.093-0.098 0.14l-0.01 0.01c-0.3452 0.489-0.6715 0.9532-1.3145 1.1833-0.6903 0.2465-1.2164 0.686-1.3622 0.8607-0.1007 0.1191-0.2628 0.4358-0.195 0.6556 0.029 0.097 0.099 0.1622 0.2054 0.193 0.152 0.045 0.3697 0.021 0.6697-0.072 0.6759-0.2116 1.3251-0.2035 2.1017 0.023 0.491 0.1438 1.0518 0.3803 1.7113 0.7254 0.6348 0.3308 1.13 0.349 1.4669 0.061 0.4643-0.3985 0.4685-1.2283 0.4438-1.4132-0.033-0.2465-0.1684-0.3371-0.2772-0.3699-0.08-0.023-0.1501-0.016-0.183-0.01l-0.1461 0.024c-0.2896 0.051-0.4907 0.084-0.6283 0.02l-0.086-0.041 0.063-0.07c0.027-0.031 0.07-0.068 0.1071-0.1027 0.1685-0.152 0.4499-0.4088 0.4478-0.7868 0-0.1171-0.095-0.1873-0.1769-0.2099-0.078-0.023-0.1622 0.01-0.2464 0.091-0.4109 0.4088-0.7704 0.6594-0.9573 0.6717l-0.1028 0.01 0.033-0.098c0.021-0.064 0.076-0.1708 0.1232-0.2632 0.152-0.2958 0.3801-0.7417 0.3431-1.1773-0.01-0.1273-0.086-0.2279-0.193-0.2588-0.015 0-0.035-0.01-0.057-0.01zm-2.1623 3.5627c-0.01 0-0.02 0-0.025 0.012v0.026l0.2095 0.2074s0.5775 0.5897 0.522 1.3827c-0.043 0.6369-0.5423 1.2367-1.1997 1.8489-2.5762 2.4036-6.7259 7.1515-7.1594 11.17-0.8875 8.2113 9.3946 10.66 9.4007 10.652v-0.023c-0.1479-0.1027-5.9247-6.2821 1.1977-18.393 1.7791-3.0261-0.8484-6.1733-2.005-6.6274l-0.099-0.039c-0.076-0.031-0.1623-0.059-0.2568-0.086-0.3061-0.09-0.5898-0.1297-0.5918-0.1297zm-1.1323 0.014c-0.4867-0.016-0.6572 0.3766-0.774 0.648-0.302 0.6964-0.6863 1.0496-1.2286 1.5304-1.9167 1.7051-0.4313 3.624-0.4313 3.624 0.01 0.012 0.019 0.012 0.029 0.012s0.9554-1.0147 2.188-2.2144c0.7334-0.7129 1.1913-0.9573 1.3988-1.662 0.1397-0.4725 0.1212-0.8733-0.053-1.1917-0.1254-0.228-0.2938-0.538-0.8238-0.6941-0.025-0.01-0.051-0.014-0.078-0.021-0.083-0.02-0.1592-0.031-0.2288-0.034zm-1.1295 0.1613c-0.3005 0-1.3169 0.4331-1.5119 0.7475-0.031 0.049-0.035 0.1067-0.016 0.1581 0.041 0.1068 0.1744 0.158 0.2997 0.195 0.2629 0.076 0.6021 0.1399 0.713 0.1112 0.1541-0.039 0.6182-0.8055 0.6223-1.089 0-0.082-0.035-0.1089-0.067-0.1192h-0.042zm13.084 5.1211c-3.6054 0.024-6.5663 2.2362-8.2111 5.9167-2.9049 6.4959-0.2897 14.245-0.2897 14.245s0.3925-3.9012 2.0997-7.1923c1.7627-3.3959 4.4539-5.3967 6.7794-5.2262 3.209 0.2362 5.6206 3.032 5.3823 6.2409v0.013l-0.014 0.014c0.01 0.021 0.01 0.033 0.01 0.037 0 0 0.012-0.029 0.033-0.082 1.3826-1.3395 2.2988-3.1699 2.4508-5.2387 0.3308-4.4764-3.0303-8.3754-7.5089-8.7062-0.2459-0.018-0.4891-0.026-0.7295-0.025zm-0.577 10.425c-1.3657 0.044-2.6327 0.7892-3.6465 2.0495-2.6337 3.2685-3.5274 7.6875-3.5274 7.6875s1.8962-2.6522 3.4062-4.0594c1.4031-1.3086 2.6724-2.1631 4.1043-1.7522 1.5511 0.4437 2.3955 2.1217 1.9127 3.6625v0.01h-0.01v0.021l0.024-0.037c0.8279-0.4951 1.4853-1.284 1.7956-2.2763 0.6738-2.1468-0.5199-4.4352-2.6687-5.109-0.4715-0.1479-0.9375-0.2113-1.3927-0.1966zm-34.387 14.88c-1.8586 0-3.3223 0.4984-4.3912 1.4951-1.069 0.9966-1.6034 2.3641-1.6034 4.1023 0 1.7189 0.5248 3.0815 1.5745 4.0878 1.0496 1.0015 2.4724 1.5023 4.2684 1.5023 0.7945 0 1.5648-0.084 2.3112-0.2528 0.7463-0.1685 1.4661-0.4213 2.1595-0.7583v-5.1857h-4.3335v1.8634h1.6973v2.0945c-0.1974 0.077-0.4213 0.1348-0.6717 0.1733-0.2456 0.034-0.5128 0.051-0.8017 0.051-1.0641 0-1.885-0.3106-2.4628-0.9317-0.5778-0.6212-0.8667-1.5023-0.8667-2.6434 0-1.1508 0.2985-2.0343 0.8956-2.6506 0.6018-0.6212 1.4565-0.9317 2.5639-0.9317 0.5971 0 1.1917 0.084 1.7839 0.2528 0.5971 0.1685 1.1966 0.4237 1.7984 0.7655v-2.2317c-0.5826-0.2648-1.2037-0.4646-1.8634-0.5995-0.6548-0.1348-1.3409-0.2022-2.0583-0.2022zm13.172 0c-1.7286 0-3.0864 0.496-4.0734 1.4878-0.9823 0.9919-1.4734 2.3618-1.4734 4.1096 0 1.743 0.4911 3.1104 1.4734 4.1023 0.987 0.9919 2.3448 1.4878 4.0734 1.4878 1.7334 0 3.0912-0.4959 4.0734-1.4878 0.9823-0.9919 1.4734-2.3593 1.4734-4.1023 0-1.7478-0.4911-3.1177-1.4734-4.1096-0.9822-0.9918-2.34-1.4878-4.0734-1.4878zm9.1279 0.195v10.783h7.663v-2.1018h-4.8824v-8.6813zm10.904 0v10.783h2.9323c1.6178 0 2.8312-0.1156 3.6401-0.3467 0.8089-0.236 1.5022-0.6332 2.08-1.1917 0.5056-0.4863 0.8812-1.0473 1.1267-1.6828 0.2456-0.6404 0.3684-1.3675 0.3684-2.1812 0-0.8041-0.1228-1.5239-0.3684-2.1595-0.2455-0.6356-0.6211-1.1965-1.1267-1.6828-0.573-0.5585-1.2615-0.9534-2.0656-1.1845-0.7993-0.2359-2.0174-0.3539-3.6545-0.3539zm-20.032 1.8201c0.8522 0 1.5119 0.3129 1.9789 0.9389 0.4671 0.6259 0.7006 1.507 0.7006 2.6434 0 1.1315-0.2335 2.0102-0.7006 2.6361-0.467 0.626-1.1267 0.939-1.9789 0.939-0.8474 0-1.5047-0.313-1.9717-0.939-0.4671-0.6259-0.7006-1.5046-0.7006-2.6361 0-1.1364 0.2335-2.0175 0.7006-2.6434 0.467-0.626 1.1243-0.9389 1.9717-0.9389zm22.813 0.2816h0.9967c1.1411 0 2.0102 0.2793 2.6073 0.8378 0.597 0.5586 0.8956 1.3723 0.8956 2.4412 0 1.0737-0.301 1.8923-0.9028 2.4556-0.5971 0.5634-1.4638 0.845-2.6001 0.845h-0.9967zm22.31 12.037c0-0.852-1.5214 0.1982-2.0082 0.5946-0.4834 0.3964-0.725 0.9389-0.725 1.6274 0 0.5947 0.1756 1.0589 0.5268 1.3928 0.3512 0.3338 0.9198 0.579 1.7057 0.7354l0.6416 0.1252c0.5355 0.1078 0.9197 0.2695 1.1527 0.4851 0.2365 0.2156 0.3547 0.5147 0.3547 0.8972 0 0.4382-0.1634 0.7755-0.4903 1.012-0.3269 0.2364-0.7911 0.3547-1.3927 0.3547-0.3964 0-0.7998-0.061-1.2102-0.1826-0.4103-0.1217-0.8293-0.3026-1.2571-0.5425v1.085c0.4452 0.1634 0.8746 0.2869 1.2884 0.3703 0.4173 0.083 0.8103 0.1252 1.1789 0.1252 0.9772 0 1.7179-0.1947 2.2221-0.5842 0.5077-0.3895 0.7615-0.9615 0.7615-1.7161 0-0.6329-0.1877-1.1372-0.5633-1.5127-0.3721-0.3791-0.9511-0.6433-1.737-0.7929l-0.6364-0.1304c-0.5772-0.1078-0.9702-0.2486-1.1788-0.4225-0.2052-0.1773-0.3078-0.4381-0.3078-0.7824 0-0.4104 0.1548-0.7268 0.4643-0.9494 0.3129-0.2225 0.7563-0.3338 1.3301-0.3338 0.3304 0 0.6729 0.047 1.0276 0.1408 0.3547 0.094 0.732 0.2365 1.1319 0.4278v-1.0276c-0.3964-0.1322-0.7842-0.2313-1.1632-0.2973-0.3791-0.066-1.1163 0.2662-1.1163-0.099zm-50.529 0.1408v0.8867h2.7645v6.901h1.0589v-6.901h2.7646v-0.8867zm7.6052 0v7.7877h5.0179v-0.8867h-3.9643v-2.822h3.7087v-0.8867h-3.7087v-2.3056h3.8704v-0.8867zm6.7497 0v7.7877h1.0223v-6.515l3.4532 6.515h1.4188v-7.7877h-1.0224v6.515l-3.4531-6.515zm7.9912 0v7.7877h2.1647c1.5022 0 2.6081-0.3147 3.3174-0.9441 0.7094-0.6294 1.0641-1.6153 1.0641-2.9576 0-1.3353-0.3529-2.3159-1.0588-2.9419-0.706-0.6294-1.8135-0.9441-3.3227-0.9441zm8.2259 0v7.7877h5.0179v-0.8867h-3.9643v-2.822h3.7087v-0.8867h-3.7087v-2.3056h3.8704v-0.8867zm6.7497 0v7.7877h1.0536v-3.2914h1.1476c0.4173 0 0.7459 0.085 0.9859 0.2556 0.2434 0.1704 0.4938 0.5164 0.7511 1.038l0.9963 1.9978h1.1319l-1.0693-2.1282c-0.2156-0.4381-0.4312-0.7824-0.6468-1.0328-0.2122-0.2503-0.4312-0.4138-0.6573-0.4903 0.4347-0.1252 0.7651-0.3495 0.9911-0.6729 0.2295-0.3234 0.3443-0.7302 0.3443-1.2206 0-0.7511-0.2191-1.3127-0.6573-1.6848-0.4381-0.3721-1.1023-0.5581-1.9925-0.5581zm7.7303 0v0.7928l-0.4277 1.664h0.6729l0.8555-1.664v-0.7928zm-21.652 0.8659h1.2728c1.0745 0 1.8604 0.2434 2.3577 0.7302 0.5007 0.4834 0.7511 1.2467 0.7511 2.2899 0 1.0502-0.2504 1.8187-0.7511 2.3056-0.4973 0.4868-1.2832 0.7303-2.3577 0.7303h-1.2728zm14.976 0h1.325c0.5077 0 0.8902 0.1165 1.1475 0.3495 0.2608 0.2295 0.3912 0.572 0.3912 1.0275 0 0.4556-0.1304 0.8016-0.3912 1.0381-0.2573 0.233-0.6398 0.3494-1.1475 0.3494h-1.325z" fill="#e42538"/>
   <path class="cls-1" d="m-9924.9-1735.5c0.4108 0.2835 0.7313 0.491 1.0374 0.7211 0.1418 0.1048 0.3678 0.2301 0.265 0.4335-0.1047 0.2116-0.3513 0.152-0.5505 0.1047-0.5937-0.1438-1.0765-0.4786-1.5079-0.8936-0.415-0.3965-0.4109-0.4006-1.0786-0.3493 0.1007 0.1849 0.2794 0.2527 0.4129 0.3637 0.3 0.2485 0.6061 0.4889 0.8095 0.8299 0.059 0.1027 0.1294 0.2096 0.049 0.3287-0.076 0.113-0.2014 0.1212-0.3185 0.1171-0.191-0.01-0.3656-0.082-0.5136-0.1951-0.4889-0.3781-1.0395-0.7068-1.1689-1.3888-0.023-0.1253-0.1315-0.08-0.2013-0.082-0.3184-0.01-0.6389 0-0.9984 0 0.062 0.2075 0.2321 0.2629 0.3492 0.3615 0.263 0.2157 0.5157 0.4397 0.6738 0.7478 0.051 0.1027 0.1336 0.2096 0.025 0.3226-0.09 0.094-0.2096 0.1088-0.3287 0.072-0.097-0.029-0.1911-0.07-0.2773-0.1212-0.5177-0.3-0.9903-0.6554-1.2922-1.1854-0.09-0.1582-0.189-0.2157-0.3575-0.1993-0.084 0.01-0.1685 0-0.2527 0h-19.728c-0.2999 0-0.5013 0.037-0.6841 0.3431-0.2958 0.4992-0.7786 0.8361-1.3004 1.0991-0.06 0.031-0.1233 0.057-0.189 0.07-0.1212 0.023-0.2363 0.012-0.3184-0.097-0.076-0.1007-0.019-0.1952 0.025-0.2835 0.1109-0.2322 0.2815-0.4212 0.4746-0.5876 0.1787-0.1541 0.3656-0.2999 0.5916-0.4848-0.4314-0.1027-0.8238-0.043-1.2449-0.045 0.062 0.2588-0.074 0.4314-0.2075 0.5999-0.2609 0.3369-0.5732 0.6204-0.9286 0.8525-0.1274 0.084-0.2588 0.1582-0.4129 0.187-0.1541 0.029-0.3123 0.045-0.4253-0.084-0.1335-0.154 0-0.2896 0.078-0.4088 0.2013-0.3205 0.4972-0.5485 0.7889-0.7786 0.1253-0.099 0.2506-0.1993 0.4725-0.3739-0.3205 0-0.5157 0.01-0.7108 0-0.1479-0.01-0.1973 0.097-0.2753 0.1849-0.3123 0.3636-0.6821 0.6553-1.1114 0.869-0.1644 0.082-0.3411 0.1438-0.5177 0.2013-0.2116 0.068-0.4808 0.1397-0.5999-0.08-0.1171-0.2178 0.1376-0.3513 0.2917-0.4684 0.2917-0.2178 0.5999-0.415 1.0046-0.6923-0.4746-0.014-0.832-0.029-1.1936 0.016-0.4417 0.056-0.8793 0-1.3107-0.074-0.2054-0.035-0.5115-0.074-0.493-0.3389 0.019-0.2774 0.3205-0.2363 0.5321-0.2507 0.4663-0.031 0.91 0.082 1.3291 0.265 0.3082 0.1336 0.602 0.1069 0.9615 0.078-0.15-0.1849-0.3246-0.2116-0.4602-0.2958-0.1726-0.1048-0.3616-0.187-0.5259-0.3041-0.1274-0.09-0.339-0.191-0.2281-0.3862 0.09-0.1602 0.2897-0.1274 0.4623-0.08 0.6307 0.1664 1.2121 0.4478 1.6969 0.8731 0.2506 0.2198 0.4725 0.2671 0.8032 0.1808-0.1684-0.2137-0.4088-0.2671-0.5916-0.3986-0.2075-0.1458-0.4191-0.2855-0.5876-0.4786-0.07-0.08-0.1356-0.1685-0.096-0.2712 0.047-0.1253 0.1705-0.1541 0.2917-0.1582 0.1746-0.01 0.3369 0.051 0.4869 0.1253 0.5711 0.2835 1.1751 0.5259 1.4976 1.1361 0.035 0.066 0.094 0.099 0.1623 0.1006 0.3123 0 0.6225 0 0.9615-0.088-0.2075-0.1561-0.4191-0.3081-0.6205-0.4704-0.2116-0.1685-0.4191-0.3411-0.6163-0.526-0.08-0.076-0.1828-0.1787-0.088-0.3061 0.082-0.1109 0.2157-0.1068 0.3246-0.064 0.189 0.072 0.38 0.1499 0.5485 0.2567 0.4561 0.2918 0.906 0.5979 1.2511 1.0211 0.1212 0.1479 0.2506 0.2034 0.4335 0.1972 0.2527-0.01 0.5074 0 0.7601 0h19.272c0.3472 0 0.5876-0.078 0.8259-0.3492 0.3451-0.3945 0.7868-0.6883 1.2408-0.9533 0.1295-0.076 0.2733-0.1335 0.4171-0.1787 0.113-0.035 0.2444-0.049 0.3225 0.066 0.086 0.1254-0.01 0.2281-0.088 0.3102-0.2712 0.2794-0.5896 0.5034-0.8999 0.7396-0.1129 0.086-0.2711 0.1233-0.341 0.3431h0.9615c0.088 0 0.1356-0.053 0.1869-0.1356 0.4253-0.6615 1.0991-0.9635 1.8037-1.2121 0.076-0.027 0.1685-0.02 0.2507-0.01 0.2177 0.039 0.2773 0.1828 0.1458 0.3656-0.1397 0.1952-0.3307 0.337-0.532 0.4643-0.2219 0.1418-0.4479 0.2753-0.7458 0.4602 0.3698 0.07 0.5917 0.074 0.8423-0.1582 0.4479-0.417 1.0087-0.6697 1.5922-0.8587 0.096-0.031 0.1972-0.055 0.2958-0.064 0.1191-0.01 0.2527 0.01 0.3081 0.1274 0.062 0.1335-0.049 0.2178-0.1397 0.2938-0.2629 0.2198-0.5793 0.3451-0.8772 0.5012-0.066 0.035-0.1705 0.037-0.1746 0.1808 0.3143 0.016 0.6122 0.049 0.9245-0.088 0.4499-0.1972 0.9306-0.3041 1.4319-0.2589 0.1828 0.016 0.417 0.012 0.4314 0.2507 0.012 0.1931-0.1911 0.2568-0.3554 0.2999-0.4623 0.1191-0.9348 0.1561-1.4073 0.113-0.3718-0.033-0.7395-0.033-1.2346-0.018z" fill="url(#linearGradient7662)" stroke="url(#linearGradient7664)"/>
  </g>
 </g>
</svg>
