<?xml version="1.0" encoding="UTF-8"?>
<!-- Created with Inkscape (http://www.inkscape.org/) -->
<svg width="37.49mm" height="36.892mm" version="1.1" viewBox="0 0 37.49 36.892" xmlns="http://www.w3.org/2000/svg" xmlns:xlink="http://www.w3.org/1999/xlink">
 <defs>
  <linearGradient id="linearGradient6461" x1="-4673" x2="-4562.8" y1="5259.7" y2="5395.3" gradientTransform="matrix(.26458 0 0 .26458 1319.7 -1318.4)" gradientUnits="userSpaceOnUse">
   <stop stop-color="#deb750" offset="0"/>
   <stop stop-color="#a18332" stop-opacity=".83922" offset=".34344"/>
   <stop stop-color="#5e4912" stop-opacity=".66275" offset=".48686"/>
   <stop stop-color="#c6a244" stop-opacity=".59608" offset=".65126"/>
   <stop stop-color="#deb750" stop-opacity=".58431" offset="1"/>
   <stop stop-color="#b99942" offset="1"/>
  </linearGradient>
 </defs>
 <g transform="translate(-78.214 -72.729)">
  <path d="m83.276 73.229v1.0299c1.8434 0 3.0903 0.3075 3.7409 0.9219 0.6506 0.5783 0.9762 1.8972 0.9762 3.9574v4.9666l-9.0341 0.051c-0.1372 0-0.2465 0.1114-0.245 0.2486l0.031 2.7761c0 0.1371 0.1134 0.2467 0.2506 0.2459l8.9974-0.05v3.7042l-8.7866 0.05c-0.1371 0-0.2464 0.1114-0.2449 0.2486l0.031 2.776c0 0.1372 0.1135 0.2468 0.2506 0.246l8.7499-0.049v8.8594c0 1.9879-0.3437 3.3073-1.0305 3.9579-0.6505 0.6145-1.8793 0.9214-3.6866 0.9214v1.0304h29.169l2.6024-9.434h-1.3554c-1.4458 3.3253-3.2714 5.4402-5.4762 6.3438-1.5542 0.6506-4.6261 0.9756-9.2165 0.9756-2.3494 0-3.8493-0.1081-4.5-0.325-0.6506-0.253-0.9761-0.8855-0.9761-1.8976v-10.463l8.3338-0.046c0.1372 0 0.246-0.1119 0.2445-0.2491l-0.031-2.7755c0-0.1372-0.1129-0.2473-0.2501-0.2465l-8.2971 0.046v-3.7042l8.0858-0.045c0.1371 0 0.2465-0.1119 0.2449-0.2491l-0.031-2.7755c0-0.1372-0.1129-0.2468-0.2501-0.246l-8.0496 0.045v-4.9356c0-2.0602 0.3437-3.3791 1.0304-3.9574 0.7229-0.6144 2.0598-0.9219 4.0116-0.9219v-1.0299z" fill="url(#linearGradient6461)" stroke="#ffe776"/>
 </g>
</svg>
