<svg width="44.6156" height="44.9617" xmlns="http://www.w3.org/2000/svg" xmlns:xlink="http://www.w3.org/1999/xlink" id="svg5625" xml:space="preserve" overflow="hidden"><defs id="defs5629"></defs><g id="g5631" transform="matrix(3.77953 0 0 3.77953 37527.8 10539.4)"><path d="M-9923.75-2776.66C-9925.24-2776.8-9926.52-2777.39-9927.53-2778.41-9928.29-2779.18-9928.81-2780.1-9929.07-2781.13-9929.2-2781.67-9929.23-2781.94-9929.24-2782.56-9929.24-2782.9-9929.22-2783.19-9929.2-2783.32-9929.01-2784.63-9928.49-2785.72-9927.62-2786.64-9927.38-2786.89-9926.98-2787.24-9926.85-2787.3-9926.7-2787.37-9926.41-2787.36-9926.27-2787.3-9926.02-2787.17-9925.89-2786.95-9925.88-2786.68-9925.88-2786.42-9925.95-2786.3-9926.28-2786.01-9927.06-2785.33-9927.57-2784.45-9927.77-2783.49-9928.15-2781.6-9927.32-2779.71-9925.67-2778.7-9924.67-2778.08-9923.39-2777.89-9922.23-2778.18-9921.12-2778.46-9920.16-2779.15-9919.53-2780.11-9918.56-2781.59-9918.56-2783.55-9919.53-2785.03-9919.8-2785.44-9920.06-2785.73-9920.5-2786.11-9920.71-2786.29-9920.78-2786.45-9920.78-2786.68-9920.78-2786.95-9920.65-2787.16-9920.39-2787.3-9920.26-2787.37-9919.97-2787.37-9919.82-2787.3-9919.69-2787.24-9919.29-2786.9-9919.04-2786.64-9918.17-2785.71-9917.66-2784.63-9917.46-2783.32-9917.41-2783-9917.42-2782.09-9917.48-2781.74-9917.67-2780.45-9918.24-2779.32-9919.14-2778.41-9920.06-2777.48-9921.2-2776.91-9922.52-2776.71-9922.76-2776.67-9923.54-2776.64-9923.76-2776.66ZM-9923.46-2782.12C-9923.87-2782.18-9924.19-2782.51-9924.25-2782.93-9924.26-2783.03-9924.26-2784.06-9924.26-2785.45-9924.26-2788.08-9924.26-2787.9-9924.09-2788.16-9923.92-2788.42-9923.66-2788.55-9923.34-2788.55-9923.01-2788.55-9922.75-2788.42-9922.58-2788.16-9922.41-2787.9-9922.42-2788.07-9922.41-2785.45-9922.41-2784.05-9922.41-2783.03-9922.43-2782.93-9922.5-2782.4-9922.95-2782.05-9923.47-2782.12Z" id="path817-68-1-9-8" stroke-width="0.0232831" fill="#F9F9F9"/></g></svg>