<svg width="57.0886" height="48.1416" xmlns="http://www.w3.org/2000/svg" xmlns:xlink="http://www.w3.org/1999/xlink" id="svg19981" xml:space="preserve" overflow="hidden"><defs id="defs19985"></defs><g id="g19987" transform="matrix(3.77953 0 0 3.77953 3714.66 -2197.41)"><path d="M-977.454 592.41C-978.802 591.461-979.941 590.655-979.987 590.619-980.068 590.555-980.093 590.553-981.035 590.539L-981.999 590.524-982.191 590.433C-982.435 590.316-982.618 590.133-982.734 589.889L-982.826 589.698-982.835 587.825C-982.843 586.01-982.842 585.946-982.783 585.754-982.712 585.521-982.586 585.344-982.382 585.19-982.114 584.987-982.079 584.982-981.01 584.963L-980.05 584.946-979.918 584.84C-979.698 584.662-975.017 581.383-975.003 581.397-974.996 581.404-974.994 584.273-974.998 587.772L-975.005 594.134ZM-972.865 590.369C-973.001 590.301-973.085 590.134-973.058 589.984-973.041 589.889-972.896 589.732-971.978 588.812L-970.918 587.749-971.965 586.702C-972.682 585.985-973.023 585.624-973.045 585.558-973.104 585.38-972.979 585.163-972.789 585.114-972.578 585.06-972.585 585.054-971.463 586.173L-970.4 587.232-969.353 586.185C-968.586 585.417-968.28 585.13-968.209 585.11-968.023 585.058-967.834 585.162-967.76 585.357-967.689 585.544-967.709 585.568-968.825 586.688L-969.884 587.75-968.849 588.783C-968.28 589.351-967.796 589.851-967.772 589.895-967.637 590.15-967.877 590.459-968.17 590.406-968.26 590.39-968.434 590.229-969.339 589.327L-970.401 588.267-971.434 589.302C-972.007 589.877-972.509 590.356-972.562 590.379-972.686 590.433-972.74 590.431-972.865 590.369Z" id="path3982" stroke-width="0.0295128" fill="#4D4D4D"/></g></svg>