<svg width="74.2156" height="69.9424" xmlns="http://www.w3.org/2000/svg" xmlns:xlink="http://www.w3.org/1999/xlink" id="svg19963" xml:space="preserve" overflow="hidden"><defs id="defs19967"></defs><g id="g19969" transform="matrix(3.77953 0 0 3.77953 3718.47 -1990.11)"><g id="g4159" transform="matrix(0.789689 0 0 0.789689 -205.39 110.739)"><path d="M-966.681 549.882C-967.075 549.688-967.279 549.211-967.145 548.804-967.109 548.695-966.913 548.432-966.68 548.179-965.429 546.823-964.447 545.307-963.794 543.726-962.408 540.368-962.371 536.426-963.695 533.067-964.358 531.383-965.258 529.944-966.529 528.534-966.861 528.166-967.109 527.843-967.146 527.734-967.278 527.333-967.065 526.845-966.677 526.657-966.208 526.429-965.879 526.552-965.29 527.174-964.08 528.454-963.025 530.035-962.303 531.652-961.626 533.167-961.225 534.631-960.973 536.502-960.876 537.221-960.891 539.397-960.999 540.215-961.339 542.798-962.196 545.114-963.587 547.212-964.37 548.393-965.516 549.718-965.907 549.896-966.175 550.018-966.415 550.014-966.681 549.882ZM-969.696 546.938C-970.016 546.795-970.226 546.464-970.226 546.101-970.226 545.802-970.167 545.698-969.698 545.17-968.248 543.538-967.456 541.87-967.112 539.718-967 539.02-967.001 537.472-967.115 536.758-967.44 534.705-968.264 532.989-969.696 531.384-970.157 530.867-970.226 530.743-970.226 530.435-970.226 529.757-969.519 529.322-968.917 529.629-968.562 529.81-967.526 531.044-966.948 531.973-966.663 532.432-966.193 533.383-965.964 533.964-965.037 536.32-964.924 539.167-965.659 541.655-965.938 542.6-966.468 543.795-966.957 544.581-967.53 545.504-968.594 546.768-968.933 546.928-969.14 547.027-969.488 547.031-969.696 546.938ZM-972.236 543.973C-972.521 543.831-972.713 543.512-972.713 543.178-972.713 542.873-972.637 542.728-972.248 542.287-971.353 541.275-970.866 540.154-970.731 538.797-970.563 537.109-971.141 535.415-972.327 534.123-972.613 533.81-972.713 533.601-972.713 533.312-972.713 533.023-972.6 532.81-972.331 532.592-972.16 532.454-972.099 532.435-971.822 532.435-971.438 532.435-971.299 532.521-970.845 533.036-969.419 534.658-968.712 536.789-968.903 538.893-969.066 540.695-969.702 542.162-970.927 543.562-971.37 544.067-971.783 544.197-972.236 543.973Z" id="path3980" stroke-width="0.0505196"/><path d="M-977.887 545.071C-979.861 543.682-981.531 542.501-981.598 542.448-981.717 542.354-981.752 542.351-983.133 542.33L-984.546 542.308-984.827 542.174C-985.184 542.004-985.453 541.736-985.623 541.379L-985.757 541.098-985.769 538.354C-985.781 535.695-985.779 535.601-985.693 535.319-985.59 534.979-985.405 534.72-985.106 534.493-984.713 534.196-984.663 534.188-983.096 534.16L-981.69 534.136-981.496 533.98C-981.174 533.72-974.315 528.916-974.295 528.936-974.285 528.946-974.281 533.149-974.287 538.276L-974.298 547.598Z" id="path3982-0" stroke-width="0.0432404"/></g></g></svg>