<svg width="44.0307" height="44.0415" xmlns="http://www.w3.org/2000/svg" xmlns:xlink="http://www.w3.org/1999/xlink" id="svg62915" xml:space="preserve" overflow="hidden"><defs id="defs62919"></defs><g id="g62921" transform="matrix(3.77953 0 0 3.77953 37921.2 8673.43)"><path d="M-10028-2283.22C-10028.9-2283.3-10029.8-2283.59-10030.5-2284.05-10031.3-2284.51-10032-2285.23-10032.5-2285.98-10033.5-2287.69-10033.6-2289.83-10032.7-2291.62-10032.2-2292.57-10031.4-2293.43-10030.5-2293.99-10028.8-2295.04-10026.7-2295.13-10024.9-2294.23-10023.9-2293.76-10023.1-2292.96-10022.5-2292.06-10021.5-2290.35-10021.4-2288.21-10022.3-2286.41-10022.8-2285.47-10023.6-2284.6-10024.5-2284.05-10025.5-2283.4-10026.8-2283.1-10028-2283.22ZM-10026.8-2283.73C-10025.8-2283.85-10024.9-2284.27-10024.1-2284.94-10023.9-2285.04-10023.8-2285.21-10023.7-2285.31-10023.5-2285.53-10023.4-2285.49-10023.9-2285.71-10025.7-2286.52-10027.2-2286.76-10028.8-2286.46-10029.5-2286.32-10030.3-2286.07-10031.1-2285.71-10031.6-2285.49-10031.5-2285.53-10031.3-2285.31-10031-2284.94-10030.4-2284.53-10029.9-2284.28-10029.2-2283.92-10028.6-2283.75-10027.8-2283.68-10027.6-2283.67-10027-2283.69-10026.8-2283.73ZM-10030.7-2286.42C-10030.1-2286.66-10029.5-2286.82-10028.9-2286.93-10028-2287.11-10027-2287.11-10026.1-2286.93-10025.2-2286.77-10024.3-2286.47-10023.5-2286.07L-10023.2-2285.89-10023-2286.1C-10022.9-2286.37-10022.6-2286.88-10022.5-2287.2-10022-2288.5-10022.1-2289.94-10022.6-2291.21-10022.9-2291.78-10023.2-2292.31-10023.7-2292.79-10024.7-2293.73-10025.8-2294.25-10027.2-2294.35-10028.4-2294.44-10029.7-2294.06-10030.7-2293.29-10031-2293.06-10031.5-2292.54-10031.8-2292.23-10032.8-2290.9-10033.1-2289.28-10032.7-2287.69-10032.5-2287.16-10032.3-2286.54-10032-2286.1L-10031.8-2285.89-10031.4-2286.07C-10031.2-2286.17-10030.9-2286.33-10030.7-2286.42ZM-10027.8-2287.59C-10029.2-2287.77-10030.3-2288.96-10030.3-2290.36-10030.3-2291.1-10030-2291.75-10029.5-2292.27-10028.4-2293.43-10026.6-2293.43-10025.5-2292.27-10024.8-2291.53-10024.5-2290.49-10024.8-2289.49-10025.2-2288.24-10026.5-2287.42-10027.8-2287.59ZM-10027.3-2288.06C-10026.3-2288.16-10025.6-2288.8-10025.3-2289.74-10025.2-2289.93-10025.2-2289.97-10025.2-2290.34-10025.2-2290.65-10025.2-2290.77-10025.3-2290.89-10025.4-2291.37-10025.6-2291.7-10025.9-2292.03-10026.2-2292.3-10026.5-2292.48-10026.9-2292.59-10027.1-2292.64-10027.2-2292.65-10027.5-2292.65-10027.8-2292.65-10027.9-2292.64-10028.1-2292.59-10028.9-2292.36-10029.5-2291.76-10029.7-2290.89-10029.8-2290.77-10029.8-2290.65-10029.8-2290.34-10029.8-2289.97-10029.8-2289.93-10029.7-2289.74-10029.4-2288.81-10028.7-2288.16-10027.8-2288.07-10027.5-2288.04-10027.5-2288.04-10027.3-2288.07Z" id="path817-6-1-7" stroke-width="0.0227693" fill="#B3B3B3"/></g></svg>