<svg width="47.1515" height="48.6465" xmlns="http://www.w3.org/2000/svg" xmlns:xlink="http://www.w3.org/1999/xlink" id="svg19693" xml:space="preserve" overflow="hidden"><defs id="defs19697"></defs><g id="g19699" transform="matrix(3.77953 0 0 3.77953 -11288.9 -4390.9)"><path d="M2992.43 1174.62C2988.12 1174.61 2987.89 1174.61 2987.8 1174.58 2987.3 1174.43 2986.95 1174.03 2986.88 1173.52 2986.87 1173.44 2986.87 1172.21 2986.87 1169.9 2986.87 1166.11 2986.86 1166.23 2986.95 1166.01 2987.07 1165.7 2987.29 1165.47 2987.58 1165.33 2987.78 1165.24 2988.04 1165.21 2988.64 1165.21 2989.01 1165.21 2989.02 1165.21 2989.05 1165.24 2989.08 1165.28 2989.08 1165.3 2989.09 1165.67 2989.1 1165.99 2989.09 1166.07 2989.07 1166.09 2989.05 1166.11 2989.01 1166.11 2988.74 1166.11 2988.35 1166.11 2988.28 1166.13 2988.24 1166.28 2988.21 1166.41 2988.27 1166.53 2988.4 1166.57 2988.44 1166.58 2989.9 1166.58 2993.01 1166.58 2996.09 1166.58 2997.6 1166.59 2997.66 1166.6 2998.17 1166.69 2998.66 1167.17 2998.81 1167.72 2998.84 1167.83 2998.85 1167.88 2998.85 1168.39 2998.86 1168.73 2998.85 1168.94 2998.84 1168.96 2998.83 1168.98 2998.67 1168.98 2997.61 1168.98 2996.56 1168.99 2996.38 1168.99 2996.28 1169.01 2995.94 1169.09 2995.64 1169.26 2995.39 1169.54 2995.22 1169.73 2995.1 1169.96 2995.03 1170.26 2994.98 1170.46 2994.98 1170.8 2995.02 1170.99 2995.09 1171.3 2995.22 1171.53 2995.45 1171.76 2995.73 1172.05 2996.01 1172.19 2996.35 1172.23 2996.6 1172.25 2997.33 1172.27 2998.07 1172.27L2998.78 1172.27 2998.82 1172.31 2998.85 1172.35 2998.84 1172.8C2998.83 1173.36 2998.81 1173.49 2998.68 1173.77 2998.51 1174.13 2998.09 1174.47 2997.69 1174.57 2997.53 1174.61 2997.3 1174.63 2997.12 1174.63 2997.03 1174.62 2994.92 1174.62 2992.42 1174.62ZM2996.51 1171.95C2996.42 1171.94 2996.26 1171.88 2996.15 1171.83 2995.82 1171.66 2995.54 1171.32 2995.44 1170.95 2995.43 1170.9 2995.41 1170.79 2995.41 1170.7 2995.37 1170.01 2995.82 1169.43 2996.52 1169.29 2996.59 1169.27 2996.92 1169.27 2997.84 1169.26 2999.18 1169.26 2999.15 1169.25 2999.25 1169.35 2999.34 1169.45 2999.34 1169.44 2999.34 1170.63 2999.34 1171.57 2999.33 1171.71 2999.32 1171.78 2999.29 1171.86 2999.23 1171.92 2999.14 1171.94 2999.09 1171.96 2996.61 1171.96 2996.51 1171.95ZM2997.36 1171.16C2997.58 1171.06 2997.7 1170.87 2997.7 1170.62 2997.7 1170.37 2997.58 1170.19 2997.35 1170.08 2997.26 1170.04 2997.22 1170.03 2997.12 1170.03 2997.01 1170.03 2996.98 1170.04 2996.89 1170.08 2996.71 1170.16 2996.58 1170.31 2996.54 1170.46 2996.51 1170.57 2996.53 1170.77 2996.57 1170.87 2996.64 1171.01 2996.74 1171.11 2996.9 1171.18 2997.01 1171.23 2997.24 1171.22 2997.36 1171.16ZM2991.89 1166.13C2991.89 1166.11 2991.93 1166 2992.09 1165.63 2992.13 1165.53 2992.28 1165.17 2992.43 1164.83 2992.57 1164.49 2992.72 1164.13 2992.76 1164.04 2992.8 1163.94 2992.89 1163.73 2992.96 1163.57 2993.02 1163.42 2993.11 1163.21 2993.15 1163.11 2993.2 1163.01 2993.31 1162.74 2993.41 1162.51 2993.51 1162.28 2993.59 1162.09 2993.59 1162.09 2993.59 1162.08 2993.62 1162.04 2993.65 1161.99 2993.72 1161.88 2993.85 1161.8 2993.98 1161.77 2994.15 1161.74 2994.22 1161.76 2994.97 1162.08 2995.34 1162.23 2995.75 1162.41 2995.89 1162.47 2996.02 1162.52 2996.22 1162.61 2996.33 1162.65 2996.43 1162.7 2996.71 1162.81 2996.94 1162.91 2997.36 1163.09 2997.72 1163.24 2997.8 1163.28 2997.83 1163.29 2997.95 1163.34 2998.06 1163.39 2998.18 1163.44 2998.31 1163.49 2998.37 1163.52 2998.63 1163.63 2998.75 1163.79 2998.75 1164.04 2998.75 1164.17 2998.76 1164.13 2998.5 1164.75 2998.45 1164.87 2998.31 1165.2 2998.19 1165.49 2997.91 1166.14 2997.93 1166.11 2997.88 1166.13 2997.82 1166.15 2997.34 1166.15 2997.35 1166.13 2997.36 1166.12 2997.39 1166.04 2997.43 1165.94 2997.53 1165.7 2997.86 1164.93 2997.9 1164.83L2997.93 1164.74 2997.85 1164.7C2997.57 1164.57 2997.45 1164.38 2997.45 1164.11 2997.45 1163.99 2997.46 1163.95 2997.49 1163.86 2997.51 1163.8 2997.53 1163.75 2997.53 1163.75 2997.52 1163.74 2996.15 1163.16 2995.94 1163.07 2995.89 1163.05 2995.74 1162.98 2995.6 1162.93 2995.36 1162.83 2994.84 1162.6 2994.8 1162.59 2994.79 1162.58 2994.76 1162.64 2994.72 1162.7 2994.62 1162.9 2994.5 1163.01 2994.29 1163.06 2994.17 1163.09 2994.06 1163.08 2993.9 1163.03 2993.84 1163.01 2993.78 1163 2993.78 1163 2993.77 1163.01 2993.74 1163.07 2993.71 1163.15 2993.68 1163.22 2993.59 1163.44 2993.5 1163.64 2993.42 1163.84 2993.32 1164.08 2993.28 1164.18 2993.24 1164.28 2993.12 1164.54 2993.03 1164.77 2992.68 1165.6 2992.47 1166.06 2992.44 1166.1 2992.4 1166.14 2992.4 1166.14 2992.14 1166.14 2991.96 1166.15 2991.89 1166.14 2991.89 1166.13ZM2993.36 1166.07C2993.39 1165.93 2993.51 1165.71 2993.64 1165.57 2993.9 1165.29 2994.32 1165.11 2994.73 1165.11 2995.26 1165.11 2995.74 1165.39 2996 1165.84 2996.03 1165.9 2996.11 1166.09 2996.11 1166.12 2996.11 1166.13 2995.51 1166.13 2994.73 1166.13L2993.34 1166.13ZM2989.68 1166.1C2989.68 1166.09 2989.74 1165.65 2989.77 1165.44 2989.78 1165.35 2989.8 1165.2 2989.81 1165.11 2989.88 1164.65 2989.94 1164.26 2990.04 1163.72 2990.06 1163.62 2990.08 1163.49 2990.1 1163.42 2990.16 1163.06 2990.22 1162.8 2990.25 1162.76 2990.29 1162.69 2990.39 1162.65 2990.57 1162.62 2990.72 1162.61 2990.95 1162.62 2990.98 1162.66 2991 1162.67 2991 1162.67 2990.58 1164.12 2990.51 1164.35 2990.46 1164.54 2990.45 1164.56 2990.44 1164.58 2990.42 1164.67 2990.39 1164.77 2990.36 1164.87 2990.3 1165.09 2990.25 1165.26 2990.21 1165.42 2990.15 1165.63 2990.12 1165.72 2990.09 1165.8 2990.06 1165.92 2990.05 1165.97 2990.01 1166.11 2990 1166.12 2989.83 1166.12 2989.75 1166.12 2989.68 1166.11 2989.68 1166.1ZM2990.71 1166.07C2990.74 1165.92 2990.79 1165.76 2991.02 1165 2991.16 1164.53 2991.29 1164.12 2991.3 1164.09 2991.31 1164.06 2991.35 1163.93 2991.39 1163.82 2991.47 1163.56 2991.51 1163.44 2991.59 1163.21 2991.63 1163.11 2991.7 1162.9 2991.75 1162.74 2991.84 1162.47 2991.85 1162.44 2991.92 1162.38 2992.01 1162.28 2992.07 1162.27 2992.4 1162.27 2992.55 1162.27 2992.67 1162.28 2992.67 1162.28 2992.67 1162.29 2992.44 1162.84 2992.14 1163.53 2991.93 1164.02 2991.34 1165.38 2991.14 1165.85 2991.03 1166.11 2991.02 1166.12 2990.84 1166.12L2990.7 1166.12Z" id="path7099-1-82" stroke-width="0.0156325" fill="#8A8A8A"/></g></svg>